<svg viewBox="0 0 1500 1000" width="1500" height="1000" xmlns="http://www.w3.org/2000/svg" role="img"><title>Testauskierros suunnittelusta uusintatestiin</title><rect x="0" y="0" width="1500" height="1000" fill="#26323b" /><text x="750" y="90" font-family="Inter,'Segoe UI',sans-serif" font-size="42" font-weight="800" fill="#eceff1" text-anchor="middle" letter-spacing="0.12em">TESTAUSKIERROS</text><rect x="590" y="145" width="320" height="130" fill="#33424d" /><rect x="590" y="145" width="320" height="6" fill="#ffb800" /><text x="750" y="202" font-family="Inter,'Segoe UI',sans-serif" font-size="26" font-weight="800" fill="#eceff1" text-anchor="middle" letter-spacing="0.12em">SUUNNITTELE TESTI</text><text x="750" y="240" font-family="Inter,'Segoe UI',sans-serif" font-size="17" font-weight="800" fill="#b0bec5" text-anchor="middle" letter-spacing="0.12em">ODOTETTU TULOS YLÖS</text><rect x="1010" y="365" width="320" height="130" fill="#33424d" /><rect x="1010" y="365" width="320" height="6" fill="#ffb800" /><text x="1170" y="422" font-family="Inter,'Segoe UI',sans-serif" font-size="26" font-weight="800" fill="#eceff1" text-anchor="middle" letter-spacing="0.12em">AJA PELISSÄ</text><text x="1170" y="460" font-family="Inter,'Segoe UI',sans-serif" font-size="17" font-weight="800" fill="#b0bec5" text-anchor="middle" letter-spacing="0.12em">TUORE MAAILMA</text><rect x="780" y="655" width="320" height="130" fill="#33424d" /><rect x="780" y="655" width="320" height="6" fill="#ffb800" /><text x="940" y="712" font-family="Inter,'Segoe UI',sans-serif" font-size="26" font-weight="800" fill="#eceff1" text-anchor="middle" letter-spacing="0.12em">LUE LOKI</text><text x="940" y="750" font-family="Inter,'Segoe UI',sans-serif" font-size="17" font-weight="800" fill="#b0bec5" text-anchor="middle" letter-spacing="0.12em">SYY, EI VAIN OIRE</text><rect x="400" y="655" width="320" height="130" fill="#33424d" /><rect x="400" y="655" width="320" height="6" fill="#ffb800" /><text x="560" y="712" font-family="Inter,'Segoe UI',sans-serif" font-size="26" font-weight="800" fill="#eceff1" text-anchor="middle" letter-spacing="0.12em">KORJAA TIEDOSTO</text><text x="560" y="750" font-family="Inter,'Segoe UI',sans-serif" font-size="17" font-weight="800" fill="#b0bec5" text-anchor="middle" letter-spacing="0.12em">YKSI MUUTOS KERRALLAAN</text><rect x="170" y="365" width="320" height="130" fill="#33424d" /><rect x="170" y="365" width="320" height="6" fill="#ffb800" /><text x="330" y="422" font-family="Inter,'Segoe UI',sans-serif" font-size="26" font-weight="800" fill="#eceff1" text-anchor="middle" letter-spacing="0.12em">UUSINTATESTI</text><text x="330" y="460" font-family="Inter,'Segoe UI',sans-serif" font-size="17" font-weight="800" fill="#b0bec5" text-anchor="middle" letter-spacing="0.12em">VASTA NYT VALMIS</text><rect x="915" y="240" width="265" height="10" fill="#ffb800" /><rect x="1170" y="240" width="10" height="125" fill="#ffb800" /><rect x="1105" y="500" width="75" height="10" fill="#ffb800" /><rect x="1105" y="500" width="10" height="155" fill="#ffb800" /><rect x="725" y="715" width="150" height="10" fill="#e05b45" /><rect x="395" y="645" width="175" height="10" fill="#ffb800" /><rect x="395" y="500" width="10" height="155" fill="#ffb800" /><rect x="330" y="355" width="265" height="10" fill="#43a047" /><rect x="585" y="240" width="10" height="125" fill="#43a047" /><rect x="700" y="430" width="100" height="100" fill="#1f2a33" /><rect x="722" y="452" width="16" height="16" fill="#e05b45" /><rect x="762" y="452" width="16" height="16" fill="#e05b45" /><rect x="722" y="492" width="56" height="16" fill="#e05b45" /><text x="750" y="585" font-family="Inter,'Segoe UI',sans-serif" font-size="20" font-weight="800" fill="#b0bec5" text-anchor="middle" letter-spacing="0.12em">BUGI ON LÖYTÖ — KIRJAA SE</text></svg>